<svg width="136" height="120" viewBox="0 0 136 120" fill="none" xmlns="http://www.w3.org/2000/svg">
<path d="M87.9777 38.2546V9.75H134.285V38.2546H87.9777Z" fill="#FDB913"/>
<path d="M134.285 38.2545L114.944 23.7991C112.581 22.2308 109.451 22.2225 107.079 23.7767C100.433 28.1307 87.9779 38.2545 87.9779 38.2545H134.285Z" fill="#FDB913"/>
<path d="M107.837 23.3585H107.701L87.9772 9.75513L87.9779 38.255C87.9779 38.255 100.433 28.1312 107.078 23.7772C107.322 23.6175 107.579 23.4851 107.837 23.3585Z" fill="#FDB913"/>
<path d="M114.561 23.358H114.156C114.424 23.4904 114.69 23.6311 114.943 23.7991L134.285 38.2545V9.75464L114.561 23.358Z" fill="#FDB913"/>
<path d="M134.285 9.75451L114.944 24.21C112.58 25.7782 109.451 25.7865 107.078 24.2323C100.432 19.8784 87.9775 9.75451 87.9775 9.75451H134.285Z" fill="white"/>
<g clip-path="url(#clip0_189:11960)">
<path d="M115.687 47.054L80.2591 13.6299C75.8358 9.45573 68.7129 9.45573 64.2896 13.6299L28.8616 47.054V100.5H115.687V47.054Z" fill="#D79800"/>
<rect x="41.1888" y="22.5" width="62.1714" height="78" rx="4" fill="white"/>
<g clip-path="url(#clip1_189:11960)">
<path fill-rule="evenodd" clip-rule="evenodd" d="M65.646 62C69.7881 62 73.146 58.6421 73.146 54.5C73.146 50.3579 69.7881 47 65.646 47C61.5039 47 58.146 50.3579 58.146 54.5C58.146 58.6421 61.5039 62 65.646 62ZM65.646 66.5C72.2734 66.5 77.646 61.1274 77.646 54.5C77.646 47.8726 72.2734 42.5 65.646 42.5C59.0186 42.5 53.646 47.8726 53.646 54.5C53.646 61.1274 59.0186 66.5 65.646 66.5Z" fill="#2B296D"/>
<rect x="79.646" y="47.5" width="36" height="6" rx="0.5" fill="#2B296D"/>
<rect opacity="0.4" x="79.646" y="56.5" width="16" height="5" rx="0.5" fill="#2B296D"/>
</g>
<path d="M115.687 100.5L79.423 73.3959C74.9917 70.4554 69.1245 70.4399 64.6755 73.354C52.2144 81.5177 28.8616 100.5 28.8616 100.5H115.687Z" fill="#F2C94C"/>
<path d="M66.0969 72.569H65.8428L28.8616 47.7415V100.5C28.8616 100.5 52.2144 81.5178 64.6739 73.3542C65.1322 73.0547 65.6129 72.8065 66.0969 72.569Z" fill="#FDB913"/>
<path d="M78.7062 72.569H77.9457C78.4489 72.8173 78.9474 73.0811 79.4217 73.3961L115.687 100.5V47.7415L78.7062 72.569Z" fill="#FDB913"/>
</g>
<path d="M1.71484 110.255V81.75H48.0218V110.255H1.71484Z" fill="#FFFCF3"/>
<path d="M48.0221 110.255L28.6812 95.7991C26.3178 94.2308 23.1887 94.2225 20.8159 95.7767C14.17 100.131 1.71509 110.255 1.71509 110.255H48.0221Z" fill="#D79800"/>
<path d="M21.574 95.3585H21.4385L1.71436 81.7551L1.71511 110.255C1.71511 110.255 14.17 100.131 20.815 95.7772C21.0594 95.6175 21.3158 95.4851 21.574 95.3585Z" fill="#D79800"/>
<path d="M28.2987 95.358H27.8931C28.1615 95.4904 28.4273 95.6311 28.6803 95.7991L48.022 110.255V81.7546L28.2987 95.358Z" fill="#D79800"/>
<path d="M48.0218 81.7545L28.681 96.21C26.3176 97.7782 23.1884 97.7865 20.8156 96.2323C14.1697 91.8784 1.71484 81.7545 1.71484 81.7545H48.0218Z" fill="white"/>
<ellipse cx="112.686" cy="91.5" rx="18.6514" ry="18" fill="white"/>
<g opacity="0.4">
<path d="M117.349 86.0295C117.349 88.6889 115.112 90.8447 112.353 90.8447C109.593 90.8447 107.357 88.6889 107.357 86.0295C107.357 83.3702 109.593 81.2144 112.353 81.2144C115.112 81.2144 117.349 83.3702 117.349 86.0295Z" fill="#2B296D"/>
<path d="M120.612 97.45C121.689 99.6081 119.876 101.779 117.465 101.784C115.576 101.789 113.424 101.785 111.687 101.759C110.575 101.743 109.254 101.737 107.996 101.738C105.553 101.738 103.695 99.549 104.799 97.3705C106.088 94.8295 108.453 92.1288 112.686 92.1288C116.963 92.1288 119.333 94.8862 120.612 97.45Z" fill="#2B296D"/>
</g>
<ellipse cx="126.674" cy="78" rx="7.77143" ry="7.5" fill="#2B296D"/>
<path fill-rule="evenodd" clip-rule="evenodd" d="M126.674 74.5C126.925 74.5 127.128 74.6959 127.128 74.9375V77.5625H129.848C130.098 77.5625 130.301 77.7584 130.301 78C130.301 78.2416 130.098 78.4375 129.848 78.4375H127.128V81.0625C127.128 81.3041 126.925 81.5 126.674 81.5C126.424 81.5 126.221 81.3041 126.221 81.0625V78.4375H123.501C123.251 78.4375 123.048 78.2416 123.048 78C123.048 77.7584 123.251 77.5625 123.501 77.5625H126.221V74.9375C126.221 74.6959 126.424 74.5 126.674 74.5Z" fill="white"/>
<defs>
<clipPath id="clip0_189:11960">
<rect x="25.6458" y="10.5" width="93.2571" height="90" rx="4" fill="white"/>
</clipPath>
<clipPath id="clip1_189:11960">
<rect width="64" height="24" fill="white" transform="translate(53.646 42.5)"/>
</clipPath>
</defs>
</svg>
